<svg width="24" height="40" viewBox="0 0 24 40" fill="none" xmlns="http://www.w3.org/2000/svg">
<path d="M0.986546 39.0134C0.328848 38.3558 0 37.5187 0 36.5022C0 35.4858 0.328848 34.6487 0.986546 33.991L14.9776 20L0.986546 6.00897C0.328848 5.35127 0 4.5142 0 3.49776C0 2.48131 0.328848 1.64424 0.986546 0.986546C1.64424 0.328848 2.48131 0 3.49776 0C4.5142 0 5.35127 0.328848 6.00897 0.986546L22.5112 17.4888C22.87 17.8475 23.1247 18.2362 23.2753 18.6547C23.4236 19.0732 23.4978 19.5217 23.4978 20C23.4978 20.4783 23.4236 20.9268 23.2753 21.3453C23.1247 21.7638 22.87 22.1525 22.5112 22.5112L6.00897 39.0134C5.35127 39.6711 4.5142 40 3.49776 40C2.48131 40 1.64424 39.6711 0.986546 39.0134Z" fill="#06042D"/>
</svg>
