<svg width="23" height="24" viewBox="0 0 23 24" fill="none" xmlns="http://www.w3.org/2000/svg">
<path d="M7.94332 10.8H5.49887V13.2H7.94332V10.8ZM12.8322 10.8H10.3878V13.2H12.8322V10.8ZM17.7211 10.8H15.2767V13.2H17.7211V10.8ZM20.1655 2.4H18.9433V0H16.4989V2.4H6.7211V0H4.27665V2.4H3.05443C1.69776 2.4 0.622208 3.48 0.622208 4.8L0.609985 21.6C0.609985 22.92 1.69776 24 3.05443 24H20.1655C21.51 24 22.61 22.92 22.61 21.6V4.8C22.61 3.48 21.51 2.4 20.1655 2.4ZM20.1655 21.6H3.05443V8.4H20.1655V21.6Z" fill="#F5F6FF"/>
</svg>
