<svg width="32" height="32" viewBox="0 0 32 32" fill="none" xmlns="http://www.w3.org/2000/svg">
<path d="M16 19.4068L4.07604 31.3308C3.62991 31.7769 3.0621 32 2.37262 32C1.68314 32 1.11533 31.7769 0.669201 31.3308C0.223066 30.8847 0 30.3169 0 29.6274C0 28.9379 0.223066 28.3701 0.669201 27.924L12.5932 16L0.669201 4.07604C0.223066 3.62991 0 3.0621 0 2.37262C0 1.68314 0.223066 1.11533 0.669201 0.669201C1.11533 0.223066 1.68314 0 2.37262 0C3.0621 0 3.62991 0.223066 4.07604 0.669201L16 12.5932L27.924 0.669201C28.3701 0.223066 28.9379 0 29.6274 0C30.3169 0 30.8847 0.223066 31.3308 0.669201C31.7769 1.11533 32 1.68314 32 2.37262C32 3.0621 31.7769 3.62991 31.3308 4.07604L19.4068 16L31.3308 27.924C31.7769 28.3701 32 28.9379 32 29.6274C32 30.3169 31.7769 30.8847 31.3308 31.3308C30.8847 31.7769 30.3169 32 29.6274 32C28.9379 32 28.3701 31.7769 27.924 31.3308L16 19.4068Z" fill="#06042D"/>
</svg>
