<svg width="289" height="56" viewBox="0 0 289 56" fill="none" xmlns="http://www.w3.org/2000/svg">
<path d="M66.1734 0.0458293V0H48.301H66.1734V0.0458293Z" fill="#0473FF"/>
<path d="M34.0945 0L26.9914 18.8805L26.9456 18.9264H26.9914L27.3122 19.5221L41.1518 43.2602V43.3519L41.1976 43.3061L41.2434 43.3519V43.2602L55.4038 19.1097L55.358 19.018L55.3122 18.9722L48.2549 0.0916586L41.1518 12.3273L34.0945 0Z" fill="#0473FF"/>
<path d="M66.1748 0.0458293V0H48.3024L57.2386 15.7185L57.5594 16.2226L64.2042 27.9542L48.2566 55.9542H66.4039L82.3974 28L66.1748 0.0458293Z" fill="#0515FF"/>
<path d="M25.1588 15.6727L34.0949 0H16.2226L0 28L15.9935 56H34.1408L18.1473 28L25.1588 15.6727Z" fill="#0515FF"/>
<path d="M124.235 25.1589V45.3684H132.438V13.6106H124.281L114.245 28.5042L104.209 13.6106H96.0518V45.3684H104.255V25.1589L111.358 35.8365H117.132L124.235 25.1589Z" fill="#06042D"/>
<path d="M147.515 22.1348H139.541V45.3688H147.515V22.1348Z" fill="#06042D"/>
<path d="M140.183 17.0478C141.008 17.7352 142.108 18.056 143.528 18.056C144.949 18.056 146.049 17.7352 146.874 17.0478C147.698 16.3604 148.111 15.3522 148.111 14.0233C148.111 12.6943 147.698 11.6861 146.874 10.9987C146.049 10.3113 144.949 9.99054 143.528 9.99054C142.108 9.99054 141.008 10.3113 140.183 10.9987C139.358 11.6861 138.946 12.6943 138.946 14.0233C138.946 15.3522 139.358 16.3604 140.183 17.0478Z" fill="#06042D"/>
<path d="M177.119 45.3679L175.744 38.7689C175.286 36.5234 174.461 34.782 173.27 33.6363C172.078 32.4907 170.658 31.7575 168.962 31.4825L176.615 22.1339H168.55L161.813 31.2534V10.5398H153.839V45.3679H161.813V38.4481L163.738 36.3401C164.104 36.3401 164.517 36.3859 164.929 36.4776C165.342 36.5692 165.708 36.7067 166.029 36.9358C166.396 37.165 166.671 37.4399 166.946 37.8524C167.221 38.219 167.404 38.7689 167.541 39.4105L168.641 45.3679H177.119Z" fill="#06042D"/>
<path d="M185.917 45.5975C187.2 45.8266 188.575 45.9641 190.087 45.9641C191.095 45.9641 192.058 45.9183 193.112 45.7808C194.12 45.6891 195.128 45.5517 196.09 45.3684C197.053 45.2309 197.923 45.0018 198.748 44.8185C199.573 44.5893 200.261 44.406 200.811 44.1769V29.4207C200.811 27.9543 200.536 26.717 199.94 25.7088C199.39 24.7006 198.565 23.8757 197.557 23.28C196.549 22.6384 195.357 22.226 194.028 21.951C192.653 21.6761 191.187 21.5386 189.629 21.5386C188.254 21.5386 186.833 21.6302 185.321 21.8594C183.809 22.0885 182.48 22.3176 181.38 22.5926L181.701 27.9543C182.755 27.6793 183.946 27.4502 185.321 27.2669C186.696 27.0378 187.933 26.9461 189.125 26.9461C190.408 26.9461 191.37 27.1294 191.966 27.4502C192.562 27.8168 192.837 28.55 192.837 29.6499V31.0247C192.241 30.933 191.599 30.8414 190.958 30.7955C190.316 30.7497 189.675 30.7039 188.987 30.7039C187.796 30.7039 186.65 30.8414 185.504 31.0705C184.359 31.2996 183.351 31.7121 182.48 32.262C181.609 32.8119 180.876 33.5451 180.372 34.4617C179.822 35.3782 179.547 36.5239 179.547 37.9445C179.547 39.5026 179.822 40.7857 180.326 41.8397C180.83 42.8937 181.563 43.6728 182.526 44.3143C183.534 44.9101 184.634 45.3226 185.917 45.5975ZM188.071 35.9281C188.712 35.5157 189.537 35.2865 190.545 35.2865C190.912 35.2865 191.279 35.2865 191.645 35.3324C192.058 35.3782 192.424 35.424 192.837 35.4698V40.8774C192.058 41.0149 191.233 41.1065 190.454 41.1065C189.537 41.1065 188.758 40.9232 188.071 40.5107C187.429 40.0983 187.108 39.3651 187.108 38.3111C187.108 37.1654 187.429 36.3864 188.071 35.9281Z" fill="#06042D"/>
<path d="M219.69 21.9047C219.048 21.7673 218.452 21.6756 217.811 21.6298C217.215 21.584 216.665 21.5381 216.161 21.5381C214.466 21.5381 212.862 21.7673 211.487 22.1797C210.066 22.5921 208.875 23.2795 207.912 24.1961C206.904 25.1126 206.171 26.3499 205.621 27.8164C205.071 29.3286 204.796 31.1159 204.796 33.2697C204.796 35.6527 205.071 37.6691 205.667 39.273C206.263 40.8769 207.087 42.2059 208.096 43.1682C209.15 44.1306 210.341 44.818 211.762 45.2763C213.182 45.6887 214.74 45.9178 216.436 45.9178C217.215 45.9178 218.086 45.872 219.094 45.7804C220.102 45.6887 221.156 45.597 222.21 45.4596C223.264 45.3221 224.272 45.1388 225.235 45.0013C226.197 44.818 227.022 44.6347 227.709 44.4514V10.5398H219.69V21.9047ZM219.736 40.0979C219.186 40.2353 218.636 40.327 218.177 40.3728C217.719 40.3728 217.169 40.4187 216.665 40.4187C216.024 40.4187 215.474 40.327 215.015 40.0979C214.557 39.8687 214.191 39.5021 213.916 38.9064C213.641 38.3565 213.412 37.6232 213.274 36.7525C213.137 35.8818 213.091 34.7362 213.091 33.4072C213.091 32.1241 213.182 31.07 213.32 30.291C213.457 29.4661 213.732 28.8245 214.053 28.3663C214.374 27.908 214.74 27.5414 215.245 27.4039C215.703 27.2206 216.253 27.129 216.849 27.129C217.307 27.129 217.857 27.1748 218.361 27.2206C218.911 27.2664 219.369 27.3581 219.781 27.4497V40.0979H219.736Z" fill="#06042D"/>
<path d="M241.184 10.9987C240.359 10.3113 239.259 9.99054 237.839 9.99054C236.418 9.99054 235.318 10.3113 234.493 10.9987C233.668 11.6861 233.256 12.6943 233.256 14.0233C233.256 15.3522 233.668 16.3604 234.493 17.0478C235.318 17.7352 236.418 18.056 237.839 18.056C239.259 18.056 240.359 17.7352 241.184 17.0478C242.009 16.3604 242.421 15.3522 242.421 14.0233C242.421 12.6943 242.009 11.6861 241.184 10.9987Z" fill="#06042D"/>
<path d="M241.824 22.1348H233.851V45.3688H241.824V22.1348Z" fill="#06042D"/>
<path d="M259.24 9.99054C256.169 9.99054 253.695 10.6779 251.862 12.0985C250.029 13.4733 249.112 15.673 249.112 18.6059V22.1346H245.583V27.5879H249.112V45.3686H257.086V27.5879H263.135V22.1346H257.086V18.6059C257.086 17.4144 257.361 16.5896 257.957 16.1771C258.552 15.7647 259.285 15.5355 260.202 15.5355C260.752 15.5355 261.302 15.5814 261.852 15.6272C262.402 15.673 262.952 15.7188 263.547 15.8105L264.235 10.4946C263.547 10.3571 262.722 10.2197 261.852 10.128C260.981 10.0364 260.11 9.99054 259.24 9.99054Z" fill="#06042D"/>
<path d="M285.819 24.4257C283.757 22.5009 280.778 21.5386 276.928 21.5386C273.033 21.5386 270.1 22.5009 268.038 24.4257C265.976 26.3504 264.968 29.4666 264.968 33.7284C264.968 37.9903 265.976 41.1065 268.038 43.0312C270.1 44.9559 273.079 45.9641 276.928 45.9641C280.824 45.9641 283.757 45.0017 285.819 43.0312C287.881 41.1065 288.889 37.9903 288.889 33.7284C288.889 29.4666 287.881 26.3504 285.819 24.4257ZM279.816 38.9068C279.266 39.915 278.303 40.3733 276.928 40.3733C275.554 40.3733 274.591 39.8692 274.041 38.9068C273.491 37.8986 273.217 36.2031 273.217 33.6826C273.217 31.208 273.491 29.4666 274.041 28.5042C274.591 27.5419 275.554 27.0378 276.928 27.0378C278.303 27.0378 279.266 27.5419 279.816 28.5042C280.365 29.4666 280.64 31.208 280.64 33.6826C280.64 36.2031 280.365 37.9445 279.816 38.9068Z" fill="#06042D"/>
</svg>
