<svg width="24" height="24" viewBox="0 0 24 24" fill="none" xmlns="http://www.w3.org/2000/svg">
<path d="M8.33213 18.8681C7.539 18.2437 6.69338 17.6456 6.11401 16.8037C4.89713 15.3187 3.95963 13.5975 3.32026 11.79C2.93213 10.6143 2.80088 9.35434 2.30026 8.22371C1.77901 7.40246 2.39026 6.50621 3.28838 6.24559C3.68776 6.16871 4.39276 5.78996 3.54338 6.06184C2.78213 6.62059 2.70901 5.55371 3.48901 5.48621C4.02151 5.41496 4.21838 4.97996 4.03651 4.58621C3.46463 4.21309 5.42401 3.80246 4.43776 3.24559C3.41026 2.13746 5.87401 1.92371 5.26651 3.18371C5.12213 4.15121 6.98776 3.00559 6.55463 4.12309C6.99526 4.65934 8.20463 4.24496 8.17276 4.99871C8.81401 5.04371 9.03525 5.58184 9.63525 5.62309C10.2596 5.90434 11.3903 6.12746 11.6021 6.83059C10.9834 7.31996 9.549 5.81809 9.4815 7.17559C9.669 9.17996 9.62026 11.2443 10.3534 13.1531C10.7003 14.3081 11.5403 15.2175 12.2996 16.1175C13.0271 16.9987 14.0096 17.6193 15.0146 18.1425C15.894 18.5568 16.8428 18.8325 17.8028 19.005C18.1909 18.7068 18.879 17.6025 19.4846 18.0675C19.5146 18.5925 18.2809 19.1625 19.4265 19.1062C20.0996 18.9037 20.5665 19.6256 21.1215 18.9731C21.6315 19.5787 23.244 18.5868 22.8803 19.8225C22.389 20.1393 21.6728 19.9481 21.1796 20.385C20.3678 19.98 19.7228 20.7468 18.8246 20.6512C17.8271 20.8293 16.8128 20.9025 15.8003 20.9025C14.1409 20.7712 12.4459 20.7168 10.869 20.1393C9.98026 19.8806 9.11213 19.3743 8.33213 18.8681ZM9.73275 19.4756C10.6009 19.8506 11.4503 20.2462 12.4009 20.3662C13.9103 20.5762 15.4703 20.8987 16.9853 20.6043C16.299 20.295 15.5903 20.7243 14.9078 20.3831C14.0884 20.5593 13.209 20.3381 12.3765 20.2293C11.4296 19.8075 10.4078 19.5168 9.52088 18.9693C8.41275 18.5643 10.0946 19.4887 10.3928 19.5637C11.0846 19.9575 9.63151 19.3612 9.42526 19.1981C8.84588 18.8718 8.77088 18.9412 9.36713 19.2712C9.48713 19.3406 9.60713 19.4156 9.73275 19.4756ZM8.08088 18.3075C8.92276 18.6187 8.07713 17.715 7.69276 17.7675C7.52213 17.4712 7.04026 17.2837 7.37963 17.1243C6.76838 17.3362 6.73838 16.3181 6.45151 16.4625C5.80463 16.2581 6.20026 15.5343 5.42963 15.09C5.36026 14.6212 4.66463 14.2162 4.44338 13.5093C4.34588 13.1475 3.65776 12.1106 4.07963 13.0762C4.43963 14.0062 5.07151 14.8031 5.59838 15.5981C6.00713 16.3556 6.49088 17.1468 7.23338 17.6193C7.48463 17.8631 7.72651 18.2325 8.08088 18.3075ZM5.65651 15.6468C5.81026 15.9206 5.68651 15.5193 5.65651 15.6468ZM9.08776 18.6806C9.27526 18.5981 8.81963 18.5756 9.08776 18.6806ZM9.54525 18.8475C9.49838 18.6168 9.33713 18.9768 9.54525 18.8475ZM10.1171 19.0856C10.389 18.8268 9.69713 18.9225 10.1171 19.0856ZM11.0959 19.6312C11.2628 19.3875 10.5671 19.5393 11.0959 19.6312ZM9.21526 18.3206C9.63713 18.0468 8.66963 18.3168 9.21526 18.3206ZM9.64463 18.5343C9.6315 18.39 9.49088 18.5981 9.64463 18.5343ZM11.7878 19.8712C12.1328 20.0887 13.7996 20.3475 12.7553 19.9612C12.5809 19.9987 10.8184 19.4625 11.7878 19.8712ZM8.38463 17.2218C8.35088 17.0775 7.85026 17.0625 8.38463 17.2218ZM9.38213 17.8031C9.64276 17.6231 8.84401 17.6643 9.38213 17.8031ZM10.2221 18.3187C10.5934 18.1781 9.61651 18.1781 10.2221 18.3187ZM7.97776 16.7793C8.38276 17.0887 9.609 16.8187 8.5965 16.5937C8.13713 16.3481 7.09838 16.1812 7.80526 16.7418L7.97776 16.7793ZM10.7903 18.4968C10.959 18.21 10.0834 18.3318 10.7903 18.4968ZM9.93526 17.8162C10.9234 18.0956 9.10463 17.19 9.6915 17.7131L9.82275 17.7731L9.93526 17.8162ZM11.649 18.8062C12.5846 18.8156 10.8034 18.6787 11.649 18.8062ZM7.61776 16.2375C7.58213 16.0631 7.38713 16.2525 7.61776 16.2375ZM13.2315 19.695C13.2578 19.38 12.9278 19.9293 13.2315 19.695ZM9.21526 17.2162C9.15901 17.0512 8.92276 17.2087 9.21526 17.2162ZM7.70776 16.1287C8.24401 16.0968 6.97088 15.8925 7.70776 16.1287ZM5.91901 14.9737C5.85151 14.715 5.33401 14.5106 5.91901 14.9737ZM10.6121 17.9512C10.5653 17.9756 10.5146 17.8387 10.6121 17.9512ZM13.5334 19.7437C13.524 19.5731 13.374 19.8093 13.5334 19.7437ZM10.3534 17.685C10.4059 17.4637 9.89588 17.6175 10.3534 17.685ZM8.17838 16.305C8.57775 16.2618 7.53713 16.035 8.17838 16.305ZM11.859 18.5925C12.4815 18.345 11.2515 18.4725 11.859 18.5925ZM9.94463 17.2931C10.6628 17.385 9.08963 16.8037 9.78713 17.2406L9.94463 17.2931ZM12.4403 18.8287C13.1115 18.4275 12.8903 19.7681 13.5784 18.9412C14.2571 18.4462 12.9915 19.5543 13.8278 19.0293C14.4334 18.6243 15.3259 19.2206 15.8903 19.4156C16.2953 19.395 16.6909 19.7662 17.1071 19.5412C17.9078 19.3256 15.5396 19.2206 16.1603 18.8381C15.4271 19.0518 14.8853 18.5831 14.5253 18.1143C13.7021 17.925 12.7515 17.505 12.3409 16.7756C12.174 16.5018 12.5828 16.815 12.1965 16.3668C11.7015 15.9262 11.454 15.4256 11.1221 14.8893C10.7246 14.6775 10.6778 14.0531 10.6384 14.8687C10.6421 14.355 10.1584 14.0081 10.0403 14.1525C10.0384 13.6575 10.5578 13.905 10.194 13.5393C10.1153 13.0256 9.85838 12.4912 9.7815 11.9118C9.6615 11.6325 9.76463 11.0343 9.37088 11.6662C9.22838 12.3356 9.324 10.845 9.54713 11.3362C9.83963 10.8356 9.44213 10.8937 9.42526 10.9631C9.61651 10.5393 9.54525 9.93934 9.37463 10.1681C9.47588 9.71996 9.53588 8.51809 9.22275 8.73184C9.41213 8.26309 9.58276 6.58684 8.75963 7.22621C8.42588 7.23184 7.85026 7.34621 7.57651 7.48309C8.43151 7.95371 7.49026 7.65371 7.14151 7.57871C7.09651 8.01559 6.75151 7.82621 6.32026 7.82996C7.00838 7.91434 5.98463 8.53309 5.59088 8.29309C5.07713 8.53871 6.03338 9.14996 5.60026 9.33934C5.65276 9.62434 4.81463 9.23621 4.88026 9.89434C4.38338 9.68434 4.81276 10.6743 5.06026 10.3406C5.90588 10.5693 5.65651 11.0925 5.67713 11.5875C5.53838 11.8762 4.99651 10.9087 5.55713 10.9537C5.11463 10.2356 5.06776 10.695 4.70213 11.0268C4.61776 11.0512 5.63776 11.5012 4.99651 11.7243C5.56088 11.8125 5.57776 12.3056 5.69213 12.6168C6.03151 12.9693 5.96213 12.2268 6.36713 12.6506C6.11026 12.2718 5.00776 11.5856 5.89463 11.805C5.88901 11.4243 5.73338 11.1168 6.00713 11.1243C6.27713 10.6368 5.72401 12.3281 6.33151 11.7075C6.50026 11.6343 6.54151 11.22 6.84338 11.7468C7.28213 12.1781 7.00276 12.4912 6.38213 12.0956C6.49276 12.4725 7.21088 12.6056 7.07588 13.1943C7.21838 13.7118 7.41901 13.5206 7.59338 13.4906C7.73026 13.9931 7.80713 13.6237 7.81463 13.3837C8.44088 13.5187 8.29463 13.8881 8.48963 14.1468C8.92088 14.3418 7.87275 12.8268 8.61338 13.6912C9.39338 14.3943 8.90588 14.6887 8.20651 14.5762C8.64901 14.5406 8.7915 15.1743 9.34463 15.1518C9.84901 15.3918 10.1921 16.3143 9.32213 15.93C9.02026 15.6581 7.9515 15.3225 8.82525 15.84C9.6315 16.2131 10.2709 16.4362 11.049 16.905C11.604 17.3025 11.8459 17.7562 12.0559 17.8462C11.589 18.0693 10.6478 17.6681 11.3471 17.5443C10.9103 17.4656 10.4209 17.2443 10.839 17.7881C11.1934 18.0843 12.0971 18.0543 12.2603 18.0862C12.1234 18.3881 11.8871 18.4125 12.2659 18.435C11.844 18.6637 12.4009 18.6993 12.4403 18.8287ZM11.5778 16.3912C11.3209 16.1231 11.2553 15.6206 11.5328 16.0575C11.6734 16.1137 11.9884 16.8787 11.5778 16.3912ZM14.3884 18.1762C14.5478 18.165 14.3921 18.2981 14.3884 18.1762ZM11.1728 15.7331C11.2646 16.0462 11.1615 15.3262 11.1728 15.7331ZM10.8934 15.3562C11.3003 15.5343 10.569 14.7337 10.8934 15.3562ZM7.50713 13.02C7.69651 12.9693 7.60088 13.3443 7.50713 13.02ZM10.2015 14.4806C10.3384 14.8481 10.3178 14.0437 10.2015 14.4806ZM8.29838 13.1568C8.57963 13.3837 8.16525 12.915 8.29838 13.1568ZM9.93151 13.68C9.62588 12.9956 10.149 13.305 9.99901 13.7925L9.93151 13.68ZM7.11526 11.8031C6.97838 11.5781 6.75338 10.9181 6.82463 10.7175C6.89026 11.0456 7.52213 12.1293 7.13401 11.1656C6.70651 10.3593 7.64588 11.4281 7.74338 11.6287C7.78838 11.8293 7.47901 11.5743 7.68901 12.0431C7.30651 11.5087 7.46401 12.3393 7.11526 11.8031ZM6.24526 11.2031C6.44401 11.5612 6.28088 10.68 6.24526 11.2031ZM6.63526 11.3381C6.95213 11.8875 6.82276 10.9425 6.63526 11.3381ZM5.69401 10.6087C5.36963 10.2862 5.13526 9.98996 5.70901 10.4081C5.93026 10.4175 5.21776 9.73309 5.76151 10.1906C6.33526 10.2956 6.04463 11.13 5.69401 10.6087ZM6.18901 10.5956C6.37651 10.41 6.28838 10.7793 6.18901 10.5956ZM6.49276 10.6931C6.83963 10.9181 6.20776 10.1587 6.49276 10.6931ZM5.88901 10.1156C4.94776 9.27746 7.07213 10.5543 6.04276 10.2712L5.88901 10.1156ZM8.58713 11.6831C8.17838 11.4393 8.47838 9.96184 8.61713 10.9725C9.01275 10.845 8.59463 11.4937 8.89088 11.4881C8.84588 11.8968 8.71275 12.045 8.58713 11.6831ZM9.58651 12.2737C9.67088 12.5775 9.62588 11.8275 9.58651 12.2737ZM9.41213 12.1012C9.45713 11.9118 9.41776 12.3262 9.41213 12.1012ZM6.07276 9.83996C5.46713 9.00559 7.83151 10.6856 6.46088 10.0518C6.31651 10.0125 6.14401 9.99934 6.07276 9.83996ZM7.99651 10.8581C8.12401 10.9743 7.93838 10.155 7.99651 10.8581ZM9.45526 11.7956C9.56776 11.3943 9.46463 12.06 9.45526 11.7956ZM6.16651 9.52121C6.52651 9.44434 7.65713 10.1531 6.61838 9.72371C6.50213 9.59434 6.25651 9.65246 6.16651 9.52121ZM9.25463 11.0606C9.29213 10.3406 9.47025 10.6312 9.2565 11.1637L9.25463 11.0606ZM6.43276 9.26996C6.57901 9.05434 6.04276 8.29871 6.50963 8.99809C6.71213 9.15746 7.09276 9.26621 6.75526 9.33371C7.28776 9.80246 6.62776 9.46121 6.43276 9.26996ZM9.10275 10.8356C9.204 10.0162 9.19088 11.3156 9.10275 10.8356ZM6.12713 8.51434C6.23963 8.46559 6.18713 8.66246 6.12713 8.51434ZM6.82276 8.92871C7.15463 9.34684 7.00276 8.55184 6.82276 8.92871ZM8.78588 10.02C8.82338 10.23 8.78588 9.87559 8.78588 10.02ZM8.67338 9.76871C8.9265 10.125 8.4015 9.09559 8.67338 9.76871ZM8.5065 9.32809C8.66213 9.67684 8.45963 9.05059 8.5065 9.32809ZM8.77838 8.88559C8.59088 8.55559 9.01463 7.43246 9.06151 8.12996C8.86463 8.67184 9.00525 8.97559 9.14213 8.24809C9.39713 7.67434 9.08775 9.37684 8.77838 8.88559ZM9.05776 7.21496C9.14026 7.11559 9.07651 7.33684 9.05776 7.21496ZM8.59088 16.425C8.604 16.4868 8.48025 16.3275 8.59088 16.425ZM9.55276 16.9125C10.089 17.0512 10.0853 16.83 9.6015 16.7643C9.34088 16.5225 8.51963 16.2656 9.25463 16.7343C9.30526 16.8562 9.45901 16.8525 9.55276 16.9125ZM7.65151 15.6487C7.94588 15.87 8.76338 16.2712 8.07151 15.7331C8.30401 15.4631 7.62526 15.3187 7.85026 15.1368C7.27651 14.7862 7.39838 14.8181 7.79963 14.8293C7.11151 14.5218 7.89901 14.5443 7.86151 14.3868C7.59526 14.3343 6.54338 13.9181 7.16213 14.4206C6.53213 14.1 7.01213 14.5406 6.82088 14.4937C6.17588 14.3175 7.39463 14.985 6.71963 14.8181C7.08901 15.1106 7.71338 15.5681 6.87525 15.1275C6.76838 15.2868 7.47713 15.5287 7.65151 15.6487ZM8.65838 16.2281C9.88276 16.6218 8.05838 15.7443 8.65838 16.2281ZM13.8146 19.35C13.8296 19.1062 13.6459 19.5581 13.8146 19.35ZM14.3434 19.5731C14.6265 19.2993 14.3546 20.01 14.8121 19.5056C14.8178 19.1456 14.799 18.9318 14.2871 19.3706C14.1465 19.4493 14.0828 19.7812 14.3434 19.5731ZM5.93401 14.2912C5.84588 13.95 5.32463 13.9518 5.93401 14.2912ZM6.49838 14.6625C6.28838 14.3137 5.74838 14.3475 6.49838 14.6625ZM9.71776 16.6031C10.0328 16.8825 11.1615 16.8075 10.0984 16.6368C9.94276 16.4043 9.10088 16.4606 9.71776 16.6031ZM14.1428 19.335C14.6246 18.93 13.674 19.5168 14.1428 19.335ZM15.1478 20.0268C15.1515 19.8975 14.9396 20.0831 15.1478 20.0268ZM15.1496 19.845C15.6859 19.2768 14.6303 19.8787 15.1496 19.845ZM4.54088 13.1268C4.08526 12.4762 4.25776 12.1837 3.81713 11.6512C3.73276 11.2443 3.06151 10.3218 3.47026 11.2987C3.84338 11.8706 3.95401 12.7556 4.54088 13.1268ZM14.9809 19.665C15.9671 19.0275 14.5778 19.3875 14.9809 19.665ZM15.7328 19.9593C16.2278 19.5356 15.4215 19.8712 15.7328 19.9593ZM5.76526 13.5712C5.90776 13.3612 5.40151 13.545 5.76526 13.5712ZM15.5771 19.7568C16.0553 19.4493 15.4665 19.4962 15.4909 19.785L15.5771 19.7568ZM9.09338 15.6712C9.0765 15.4631 8.84025 15.6881 9.09338 15.6712ZM9.49463 15.9018C9.36525 15.6431 9.29775 15.9412 9.49463 15.9018ZM16.344 19.965C16.9571 19.5225 15.9728 19.8806 16.2165 20.0493L16.344 19.965ZM16.1078 19.8525C16.6084 19.4343 15.5828 20.0381 16.1078 19.8525ZM17.3059 20.6493C17.6415 20.4262 16.899 20.5781 17.3059 20.6493ZM6.07276 13.4193C6.52088 13.5206 7.86526 14.5237 7.07213 13.4887C6.66526 13.3687 6.90901 12.375 6.49463 12.5512C6.77213 13.0162 6.72338 13.2131 6.13838 12.9206C5.40526 12.5625 5.72588 13.0968 5.87026 13.245C5.67526 13.2918 6.13088 13.4156 6.07276 13.4193ZM4.02901 11.805C4.10963 11.4731 3.28838 9.97684 3.64088 11.055C3.76838 11.2818 3.75526 11.7093 4.02901 11.805ZM7.78088 14.1187C7.76963 14.0906 7.55026 13.9256 7.78088 14.1187ZM8.349 14.2518C8.349 13.8993 7.72088 14.1075 8.349 14.2518ZM13.2803 17.3587C13.1865 17.1187 12.909 17.355 13.2803 17.3587ZM13.5165 17.5331C13.4828 17.3981 13.3815 17.5593 13.5165 17.5331ZM15.4721 18.7631C15.6596 18.6243 15.2378 18.7462 15.4721 18.7631ZM5.04901 12.0656C5.58713 11.8575 4.47338 11.9175 5.04901 12.0656ZM12.8471 16.9781C12.8396 16.6293 12.504 17.0643 12.8471 16.9781ZM4.83713 11.5706C5.18213 11.4543 4.51651 11.4937 4.83713 11.5706ZM5.83838 12.0562C5.83276 11.9418 5.73338 12.0993 5.83838 12.0562ZM18.0671 19.5543C18.5115 19.4643 19.524 19.7812 19.6871 19.4362C19.1471 19.4231 17.8215 19.0556 17.7596 19.5225L17.8778 19.5412L18.0671 19.5543ZM6.15713 12.1368C6.16651 11.7843 5.88338 12.1237 6.15713 12.1368ZM3.52276 10.3087C3.40276 9.63746 3.06713 10.2075 3.52276 10.3087ZM4.15088 10.4662C4.15838 10.2506 3.57526 10.2731 4.15088 10.4662ZM4.50901 10.6425C4.42838 10.7493 4.40588 10.56 4.50901 10.6425ZM6.77026 12.0918C6.87713 11.9943 6.51713 12.0206 6.77026 12.0918ZM4.27088 10.245C4.20901 9.73684 3.54338 10.17 4.27088 10.245ZM2.98276 9.40871C2.96401 9.17434 2.85713 9.49684 2.98276 9.40871ZM3.17401 9.26434C3.14213 8.98684 3.00901 9.29996 3.17401 9.26434ZM4.23338 9.89621C4.68151 9.71996 3.41776 9.53246 4.14151 9.86246L4.23338 9.89621ZM18.4065 18.6506C18.6934 18.3881 18.0428 18.57 18.4065 18.6506ZM20.1184 19.5393C20.2328 19.2 19.8296 19.5825 20.1184 19.5393ZM4.34026 9.34121C4.38901 9.01309 3.98588 9.40684 4.34026 9.34121ZM2.83463 8.33246C2.75401 7.86934 2.76526 7.05371 3.53963 7.32934C2.50651 7.53559 4.25588 8.61371 4.03463 7.76246C4.46963 7.78309 4.88401 7.50559 4.65713 7.92746C5.51401 7.83371 6.10651 7.09121 6.93338 7.19434C7.57838 7.10809 8.2815 7.04434 8.97525 6.78559C9.54525 6.74434 10.0946 6.12934 9.78338 5.76559C9.00526 5.69996 8.18963 5.79746 7.33088 5.96809C6.37838 6.16684 5.51213 6.54184 4.55026 6.70496C3.61276 6.83059 4.73776 7.05184 4.46963 7.10059C3.98026 7.26934 5.05276 7.38559 4.40588 7.56371C4.00651 7.48684 3.59026 7.34996 3.76088 6.92996C2.86276 7.04621 2.07338 7.41934 2.78401 8.33246H2.83463ZM4.99838 7.22996C5.20838 6.45371 6.12526 7.86746 5.34338 7.33309C5.24963 7.26184 5.09588 7.20559 4.99838 7.22996ZM5.03963 6.85309C5.34338 6.62809 5.20088 6.98059 5.03963 6.85309ZM5.42588 6.86059C5.45401 6.50434 6.30901 7.04996 5.56651 6.98809L5.42588 6.86059ZM5.95276 6.64684C6.14588 6.42184 6.00901 6.84746 5.95276 6.64684ZM6.08776 6.55684C6.40838 6.17059 7.90463 6.31121 6.80963 6.51934C6.51713 6.29809 6.29213 6.65059 6.08776 6.55684ZM8.04151 6.25684C9.01276 6.62996 7.99276 5.20309 8.04151 6.25684ZM8.5965 6.25309C8.799 5.72246 9.384 6.03934 8.69025 6.14621C8.70525 6.20246 8.66963 6.41996 8.5965 6.25309ZM4.12276 9.06934C4.72838 8.69809 3.47963 8.74684 4.12276 9.06934ZM4.57088 9.19309C4.78275 8.96809 4.10963 9.10121 4.57088 9.19309ZM3.25088 8.25746C3.59776 7.99121 2.84213 8.15621 3.25088 8.25746ZM21.129 19.4418C21.1384 19.1325 20.8646 19.5806 21.129 19.4418ZM19.3121 18.2025C19.3646 17.8462 19.0796 18.2325 19.3121 18.2025ZM21.6296 19.5618C22.1134 19.5637 23.0959 19.4118 22.0421 19.4118C21.8771 19.4362 21.0803 19.4325 21.6296 19.5618ZM4.96463 8.97559C5.35651 8.94934 5.57776 8.54434 4.88776 8.56684C3.82088 8.45621 5.82901 8.93246 4.75088 8.79559C4.60651 8.89121 4.95526 9.00184 4.96463 8.97559ZM5.30963 9.14996C5.26838 8.89871 5.18776 9.28309 5.30963 9.14996ZM5.71838 8.05871C5.88713 7.84871 5.48213 8.00246 5.71838 8.05871ZM4.41526 5.88371C5.11463 5.64559 6.06901 5.37934 6.39901 5.99996C6.06338 5.59684 6.26401 5.19746 6.58088 5.78996C7.02901 6.38809 7.25401 5.51809 6.96151 5.31746C7.29338 5.72996 7.67213 5.92496 7.18463 5.34371C7.71526 4.70621 6.12338 5.42809 5.76151 5.42059C5.58901 5.49746 3.96525 5.83309 4.41526 5.88371ZM4.82588 5.09996C5.22526 4.79996 6.20401 5.27996 5.57588 4.80184C5.51401 4.74559 4.19776 5.16371 4.82588 5.09996ZM6.27901 5.15996C6.74588 5.17121 6.07838 4.53371 6.63338 4.82246C6.54151 4.52434 5.98651 4.46809 5.71463 4.34996C5.56088 4.62184 6.02588 5.16371 6.27901 5.15996ZM5.08088 3.83996C5.24213 3.62246 4.79776 3.95246 5.08088 3.83996ZM5.67338 3.98246C6.42526 3.88309 5.48213 3.65996 5.52151 3.97496L5.67338 3.98246ZM4.56526 3.11621C4.03651 2.42434 5.56088 3.23246 5.02276 2.50871C4.57088 2.14871 4.13588 2.91371 4.56526 3.11621ZM11.3546 6.77246C11.5965 6.34309 10.3534 6.19309 11.1915 6.62059C11.2703 6.64684 11.2515 6.80246 11.3546 6.77246Z" fill="white"/>
</svg>
