<svg width="24" height="24" viewBox="0 0 24 24" fill="none" xmlns="http://www.w3.org/2000/svg">
<path d="M20.545 10.2945L17.792 8.712L17.7931 5.4116L20.5462 6.994L20.545 10.2945ZM20.544 13.8842L17.7918 12.3022L17.7929 9.1494L20.5451 10.7313L20.544 13.8842ZM20.5703 17.5159L17.7843 15.9146L17.7855 12.7617L20.5715 14.363L20.5703 17.5159ZM13.4183 11.0091L17.4156 8.7114L17.4159 5.5591L13.4186 7.8569L13.4183 11.0091ZM10.9429 15.9924L17.4003 12.2806L17.4006 9.1284L10.9432 12.8402L10.9429 15.9924ZM6.60051 22.1347L17.4231 15.9139L17.4234 12.7617L6.60101 18.9825L6.60051 22.1347ZM9.58981 24L6.82011 22.4073L17.6038 16.206L20.3735 17.7987L9.58981 24ZM3.45501 13.7775L6.20801 15.36L6.20691 18.7209L3.45381 17.1384L3.45501 13.7775ZM3.45621 10.1878L6.20841 11.7698L6.20741 14.9226L3.45511 13.3407L3.45621 10.1878ZM3.42971 6.5764L6.21571 8.1777L6.21471 11.3306L3.42871 9.7293L3.42971 6.5764ZM10.5814 13.062L6.58401 15.3598L6.58361 18.5121L10.5809 16.2143L10.5814 13.062ZM13.0568 8.0788L6.59941 11.7905L6.59901 14.9428L13.0564 11.231L13.0568 8.0788ZM17.4154 1.9272L6.57651 8.1573L6.57611 11.3095L17.415 5.0793L17.4154 1.9272ZM14.534 0L17.3037 1.5927L6.39611 7.8652L3.62641 6.2725L14.534 0Z" fill="#2563EB"/>
</svg>
