<svg width="48" height="48" viewBox="0 0 48 48" fill="none" xmlns="http://www.w3.org/2000/svg">
<path d="M24 0C10.74 0 0 11.0188 0 24.6094C0 35.4846 6.876 44.707 16.41 47.9575C17.61 48.1892 18.05 47.4284 18.05 46.7742C18.05 46.1897 18.03 44.6414 18.02 42.5906C11.344 44.0754 9.936 39.2888 9.936 39.2888C8.844 36.4485 7.266 35.6897 7.266 35.6897C5.092 34.1639 7.434 34.1947 7.434 34.1947C9.844 34.367 11.11 36.7295 11.11 36.7295C13.25 40.4926 16.728 39.4057 18.1 38.7761C18.316 37.1847 18.934 36.0999 19.62 35.4846C14.29 34.8694 8.688 32.753 8.688 23.3235C8.688 20.637 9.618 18.4427 11.158 16.72C10.888 16.0986 10.078 13.5967 11.368 10.2067C11.368 10.2067 13.378 9.54638 17.968 12.7292C19.888 12.1816 21.928 11.9109 23.968 11.8986C26.008 11.9109 28.048 12.1816 29.968 12.7292C34.528 9.54638 36.538 10.2067 36.538 10.2067C37.828 13.5967 37.018 16.0986 36.778 16.72C38.308 18.4427 39.238 20.637 39.238 23.3235C39.238 32.7776 33.628 34.8591 28.288 35.4641C29.128 36.2024 29.908 37.7118 29.908 40.0169C29.908 43.3104 29.878 45.9559 29.878 46.7557C29.878 47.4017 30.298 48.1708 31.528 47.9247C41.13 44.6967 48 35.4682 48 24.6094C48 11.0188 37.254 0 24 0Z" fill="currentColor"/>
</svg>
