<svg width="48" height="48" viewBox="0 0 48 48" fill="none" xmlns="http://www.w3.org/2000/svg">
<path d="M37.3496 47.9747L10.697 48C4.83345 48.0053 0.0319876 43.2132 0.0253245 37.3496L4.44274e-06 10.697C-0.00532608 4.83345 4.78681 0.0319876 10.6504 0.0253245L37.303 4.44274e-06C43.1665 -0.00532608 47.968 4.78681 47.9747 10.6504L48 37.303C48.0067 43.1679 43.2132 47.9693 37.3496 47.9747Z" fill="#06042D"/>
<path d="M24.0008 33.3291C18.8582 33.3291 14.6724 29.1446 14.6724 24.0007C14.6724 18.8567 18.8582 14.6723 24.0008 14.6723C29.1434 14.6723 33.3292 18.8567 33.3292 24.0007C33.3292 29.1446 29.1434 33.3291 24.0008 33.3291ZM24.0008 17.3375C20.3267 17.3375 17.3376 20.3266 17.3376 24.0007C17.3376 27.6747 20.3267 30.6638 24.0008 30.6638C27.6748 30.6638 30.6639 27.6747 30.6639 24.0007C30.6639 20.3266 27.6748 17.3375 24.0008 17.3375Z" fill="#F5F6FF"/>
<path d="M33.9953 16.0049C35.0993 16.0049 35.9942 15.1099 35.9942 14.0059C35.9942 12.902 35.0993 12.007 33.9953 12.007C32.8913 12.007 31.9963 12.902 31.9963 14.0059C31.9963 15.1099 32.8913 16.0049 33.9953 16.0049Z" fill="#F5F6FF"/>
<path d="M31.9965 41.3249H16.0049C10.8623 41.3249 6.67651 37.1404 6.67651 31.9965V16.0049C6.67651 10.8609 10.8623 6.67648 16.0049 6.67648H31.9965C37.1391 6.67648 41.3249 10.8609 41.3249 16.0049V31.9965C41.3249 37.1404 37.1391 41.3249 31.9965 41.3249ZM16.0049 9.34174C12.3309 9.34174 9.34177 12.3308 9.34177 16.0049V31.9965C9.34177 35.6705 12.3309 38.6596 16.0049 38.6596H31.9965C35.6705 38.6596 38.6596 35.6705 38.6596 31.9965V16.0049C38.6596 12.3308 35.6705 9.34174 31.9965 9.34174H16.0049Z" fill="#F5F6FF"/>
</svg>
