<svg width="24" height="25" viewBox="0 0 24 25" fill="none" xmlns="http://www.w3.org/2000/svg">
<g clip-path="url(#clip0_457_2522)">
<path d="M3.9 12.6001C3.9 10.8901 5.29 9.5001 7 9.5001H11V7.6001H7C4.24 7.6001 2 9.8401 2 12.6001C2 15.3601 4.24 17.6001 7 17.6001H11V15.7001H7C5.29 15.7001 3.9 14.3101 3.9 12.6001ZM8 13.6001H16V11.6001H8V13.6001ZM17 7.6001H13V9.5001H17C18.71 9.5001 20.1 10.8901 20.1 12.6001C20.1 14.3101 18.71 15.7001 17 15.7001H13V17.6001H17C19.76 17.6001 22 15.3601 22 12.6001C22 9.8401 19.76 7.6001 17 7.6001Z" fill="#F5F6FF"/>
</g>
<defs>
<clipPath id="clip0_457_2522">
<rect width="24" height="24" fill="white" transform="translate(0 0.600098)"/>
</clipPath>
</defs>
</svg>
