<svg width="48" height="48" viewBox="0 0 48 48" fill="none" xmlns="http://www.w3.org/2000/svg">
<path d="M48 41.3333C48 45.016 45.016 48 41.3333 48H6.66667C2.98533 48 0 45.016 0 41.3333V6.66667C0 2.984 2.98533 0 6.66667 0H41.3333C45.016 0 48 2.984 48 6.66667V41.3333Z" fill="#06042D"/>
<path opacity="0.05" d="M32.0001 41.3333V27.868C32.0001 25.616 30.9081 24.2707 29.0774 24.2707C27.9907 24.2707 27.1921 24.8827 26.7054 26.0893C26.6827 26.1747 26.6507 26.5227 26.6641 27.5747L26.6667 41.3333H17.3334V16H26.6667V17.4147C28.0294 16.4747 29.7001 16 31.6507 16C37.7134 16 41.3321 20.124 41.3321 27.032L41.3334 41.3333H32.0001ZM6.66675 41.3333V16H11.2761C8.60541 16 6.66675 14.0373 6.66675 11.332C6.66675 8.62934 8.63741 6.66667 11.3521 6.66667C14.0347 6.66667 15.9454 8.57467 16.0001 11.3053C16.0001 14.0307 14.0281 16 11.3134 16H16.0001V41.3333H6.66675Z" fill="#06042D"/>
<path opacity="0.07" d="M32.6666 40.6667V27.868C32.6666 25.2373 31.2919 23.604 29.0773 23.604C27.3506 23.604 26.4973 24.82 26.0866 25.84C25.9773 26.1053 25.9919 27.1587 25.9972 27.608L25.9999 40.6667H17.9999V16.6667H25.9999V18.8507C27.0599 17.7533 28.7666 16.6667 31.6506 16.6667C37.2946 16.6667 40.6652 20.5413 40.6652 27.032L40.6666 40.6667H32.6666ZM7.33325 40.6667V16.6667H15.3333V40.6667H7.33325ZM11.2759 15.3333C8.99192 15.3333 7.33325 13.6507 7.33325 11.332C7.33325 9.01466 9.02392 7.33333 11.3519 7.33333C13.6506 7.33333 15.2866 8.972 15.3333 11.3187C15.3333 13.6507 13.6426 15.3333 11.3133 15.3333H11.2759Z" fill="#06042D"/>
<path d="M8 17.3333H14.6667V40H8V17.3333ZM11.3133 14.6667H11.276C9.28667 14.6667 8 13.184 8 11.332C8 9.44 9.32667 8 11.352 8C13.38 8 14.6293 9.44 14.6667 11.332C14.6667 13.1827 13.38 14.6667 11.3133 14.6667ZM40 40H33.3333V27.868C33.3333 24.9373 31.7 22.9373 29.0773 22.9373C27.076 22.9373 25.9933 24.2867 25.468 25.5907C25.276 26.0573 25.3333 27.348 25.3333 28V40H18.6667V17.3333H25.3333V20.8213C26.2947 19.3333 27.8 17.3333 31.6507 17.3333C36.4213 17.3333 39.9987 20.3333 39.9987 27.032L40 40Z" fill="#F5F6FF"/>
</svg>
