<svg width="21" height="20" viewBox="0 0 21 20" fill="none" xmlns="http://www.w3.org/2000/svg">
<path d="M10.5996 12.2222C9.9885 12.2222 9.46535 12.0046 9.03016 11.5694C8.59498 11.1343 8.37739 10.6111 8.37739 10C8.37739 9.38889 8.59498 8.86574 9.03016 8.43056C9.46535 7.99537 9.9885 7.77778 10.5996 7.77778C11.2107 7.77778 11.7339 7.99537 12.1691 8.43056C12.6042 8.86574 12.8218 9.38889 12.8218 10C12.8218 10.6111 12.6042 11.1343 12.1691 11.5694C11.7339 12.0046 11.2107 12.2222 10.5996 12.2222ZM10.5996 5.55556C10.2848 5.55556 10.0209 5.44907 9.80794 5.23611C9.59498 5.02315 9.4885 4.75926 9.4885 4.44444V1.11111C9.4885 0.796296 9.59498 0.532407 9.80794 0.319444C10.0209 0.106481 10.2848 0 10.5996 0C10.9144 0 11.1783 0.106481 11.3913 0.319444C11.6042 0.532407 11.7107 0.796296 11.7107 1.11111V4.44444C11.7107 4.75926 11.6042 5.02315 11.3913 5.23611C11.1783 5.44907 10.9144 5.55556 10.5996 5.55556ZM10.5996 20C10.2848 20 10.0209 19.8935 9.80794 19.6806C9.59498 19.4676 9.4885 19.2037 9.4885 18.8889V15.5556C9.4885 15.2407 9.59498 14.9769 9.80794 14.7639C10.0209 14.5509 10.2848 14.4444 10.5996 14.4444C10.9144 14.4444 11.1783 14.5509 11.3913 14.7639C11.6042 14.9769 11.7107 15.2407 11.7107 15.5556V18.8889C11.7107 19.2037 11.6042 19.4676 11.3913 19.6806C11.1783 19.8935 10.9144 20 10.5996 20ZM16.1552 11.1111C15.8404 11.1111 15.5765 11.0046 15.3635 10.7917C15.1505 10.5787 15.0441 10.3148 15.0441 10C15.0441 9.68519 15.1505 9.4213 15.3635 9.20833C15.5765 8.99537 15.8404 8.88889 16.1552 8.88889H19.4885C19.8033 8.88889 20.0672 8.99537 20.2802 9.20833C20.4931 9.4213 20.5996 9.68519 20.5996 10C20.5996 10.3148 20.4931 10.5787 20.2802 10.7917C20.0672 11.0046 19.8033 11.1111 19.4885 11.1111H16.1552ZM1.71072 11.1111C1.39591 11.1111 1.13202 11.0046 0.919054 10.7917C0.706091 10.5787 0.599609 10.3148 0.599609 10C0.599609 9.68519 0.706091 9.4213 0.919054 9.20833C1.13202 8.99537 1.39591 8.88889 1.71072 8.88889H5.04405C5.35887 8.88889 5.62276 8.99537 5.83572 9.20833C6.04868 9.4213 6.15516 9.68519 6.15516 10C6.15516 10.3148 6.04868 10.5787 5.83572 10.7917C5.62276 11.0046 5.35887 11.1111 5.04405 11.1111H1.71072Z" fill="#F5F6FF"/>
</svg>
