<svg width="20" height="24" viewBox="0 0 20 24" fill="none" xmlns="http://www.w3.org/2000/svg">
<path d="M19.7448 18.2848L11.4908 0.756487C11.2838 0.318287 10.8518 0.0291868 10.3622 0.00238684C9.85991 -0.0269132 9.40991 0.215387 9.15601 0.627687L0.204013 15.1271C-0.0732872 15.5789 -0.0677872 16.1362 0.219813 16.5826L4.59571 23.3612C4.85651 23.7658 5.30841 24 5.77801 24C5.91121 24 6.04501 23.9812 6.17671 23.9423L18.8786 20.1855C19.2677 20.0704 19.5858 19.7951 19.7523 19.4302C19.9188 19.0653 19.9156 18.6474 19.7448 18.2848ZM17.8967 19.0367L7.11941 22.2242C6.79021 22.3217 6.47461 22.0369 6.54381 21.7048L10.3939 3.26619C10.4659 2.92139 10.9425 2.86659 11.0929 3.18589L18.2217 18.3239C18.3561 18.6095 18.2027 18.9463 17.8967 19.0367Z" fill="#7E8798"/>
</svg>
