<svg width="93" height="64" viewBox="0 0 93 64" fill="none" xmlns="http://www.w3.org/2000/svg">
<path d="M76.5797 64C73.6734 64 71.4453 62.7646 69.8953 60.2938C68.3453 57.8192 68.2484 55.2727 69.6047 52.6545L75.5625 40.7273H63.9375C60.7406 40.7273 58.0049 39.5869 55.7303 37.3062C53.4518 35.0293 52.3125 32.2909 52.3125 29.0909V11.6364C52.3125 8.43636 53.4518 5.69794 55.7303 3.42109C58.0049 1.14036 60.7406 0 63.9375 0H81.375C84.5719 0 87.3096 1.14036 89.5881 3.42109C91.8627 5.69794 93 8.43636 93 11.6364V37.9636C93 38.8364 92.9264 39.7343 92.7791 40.6575C92.6357 41.5767 92.3219 42.4242 91.8375 43.2L83.5547 59.6364C82.8766 60.9939 81.9078 62.0606 80.6484 62.8364C79.3891 63.6121 78.0328 64 76.5797 64ZM24.2672 64C21.3609 64 19.1328 62.7646 17.5828 60.2938C16.0328 57.8192 15.9359 55.2727 17.2922 52.6545L23.25 40.7273H11.625C8.42813 40.7273 5.69237 39.5869 3.41775 37.3062C1.13925 35.0293 0 32.2909 0 29.0909V11.6364C0 8.43636 1.13925 5.69794 3.41775 3.42109C5.69237 1.14036 8.42813 0 11.625 0H29.0625C32.2594 0 34.9971 1.14036 37.2756 3.42109C39.5502 5.69794 40.6875 8.43636 40.6875 11.6364V37.9636C40.6875 38.8364 40.6158 39.7343 40.4724 40.6575C40.3252 41.5767 40.0094 42.4242 39.525 43.2L31.2422 59.6364C30.5641 60.9939 29.5953 62.0606 28.3359 62.8364C27.0766 63.6121 25.7203 64 24.2672 64Z" fill="#06042D"/>
</svg>
