<svg width="24" height="24" viewBox="0 0 24 24" fill="none" xmlns="http://www.w3.org/2000/svg">
<path d="M11.9998 14.1375C13.1803 14.1375 14.1373 13.1806 14.1373 12C14.1373 10.8195 13.1803 9.86255 11.9998 9.86255C10.8193 9.86255 9.8623 10.8195 9.8623 12C9.8623 13.1806 10.8193 14.1375 11.9998 14.1375Z" fill="#61DAFB"/>
<path d="M20.1189 8.47505C19.7064 8.32505 19.2752 8.17505 18.8252 8.0438C18.9377 7.5938 19.0314 7.1438 19.1064 6.71255C19.5002 4.23755 19.0689 2.4938 17.8689 1.8188C17.5127 1.61255 17.1189 1.5188 16.6689 1.5188C15.3564 1.5188 13.6877 2.4938 12.0002 4.12505C10.3127 2.4938 8.64394 1.5188 7.33144 1.5188C6.88144 1.5188 6.4877 1.61255 6.13145 1.8188C4.93145 2.51255 4.5002 4.2563 4.89395 6.71255C4.96895 7.1438 5.0627 7.5938 5.1752 8.0438C4.7252 8.17505 4.29395 8.3063 3.88145 8.47505C1.5377 9.37505 0.262695 10.6125 0.262695 12C0.262695 13.3876 1.55645 14.6251 3.88145 15.5251C4.29395 15.6751 4.7252 15.825 5.1752 15.9563C5.0627 16.4063 4.96895 16.8563 4.89395 17.2875C4.5002 19.7625 4.93145 21.5063 6.13145 22.1813C6.4877 22.3876 6.88144 22.4813 7.33144 22.4813C8.66269 22.4813 10.3314 21.5063 12.0002 19.8751C13.6877 21.5063 15.3564 22.4813 16.6689 22.4813C17.1189 22.4813 17.5127 22.3876 17.8689 22.1813C19.0689 21.4876 19.5002 19.7438 19.1064 17.2875C19.0314 16.8563 18.9377 16.4063 18.8252 15.9563C19.2752 15.825 19.7064 15.6938 20.1189 15.5251C22.4627 14.6251 23.7377 13.3876 23.7377 12C23.7377 10.6125 22.4627 9.37505 20.1189 8.47505ZM17.3439 2.7563C18.1127 3.2063 18.3752 4.5938 18.0564 6.56255C18.0002 6.9563 17.9064 7.3688 17.7939 7.80005C16.8189 7.57505 15.7877 7.42505 14.7002 7.3313C14.0627 6.4313 13.4064 5.62505 12.7502 4.8938C14.1377 3.52505 15.5439 2.58755 16.6877 2.58755C16.9314 2.58755 17.1564 2.6438 17.3439 2.7563ZM15.2439 13.8751C14.9064 14.4751 14.5127 15.075 14.1002 15.675C13.4064 15.7313 12.7127 15.7501 12.0002 15.7501C11.2689 15.7501 10.5752 15.7313 9.90019 15.675C9.48769 15.075 9.11269 14.4751 8.77519 13.8751C8.41894 13.2563 8.08144 12.6188 7.78144 12C8.08144 11.3813 8.41894 10.7438 8.77519 10.125C9.11269 9.52505 9.50644 8.92505 9.91894 8.32505C10.6127 8.2688 11.3064 8.25005 12.0189 8.25005C12.7502 8.25005 13.4439 8.2688 14.1189 8.32505C14.5314 8.92505 14.9064 9.52505 15.2439 10.125C15.6002 10.7438 15.9377 11.3813 16.2377 12C15.9189 12.6188 15.6002 13.2376 15.2439 13.8751ZM16.8002 13.2563C17.0814 13.9125 17.3064 14.5501 17.5127 15.1876C16.8752 15.3376 16.2002 15.4501 15.4877 15.5438C15.7127 15.1876 15.9564 14.8126 16.1627 14.4188C16.3877 14.0251 16.5939 13.6313 16.8002 13.2563ZM12.0002 18.3376C11.5502 17.8501 11.1189 17.3251 10.7064 16.7813C11.1377 16.8001 11.5689 16.8188 12.0002 16.8188C12.4314 16.8188 12.8627 16.8001 13.2939 16.7813C12.8814 17.3251 12.4502 17.8501 12.0002 18.3376ZM8.51269 15.5251C7.80019 15.4313 7.12519 15.3188 6.48769 15.1688C6.69394 14.5501 6.91894 13.8938 7.20019 13.2375C7.40644 13.6125 7.61269 14.0063 7.83769 14.3813C8.06269 14.7938 8.28769 15.1501 8.51269 15.5251ZM7.20019 10.7438C6.91894 10.0875 6.69394 9.45005 6.48769 8.81255C7.12519 8.66255 7.80019 8.55005 8.51269 8.4563C8.28769 8.81255 8.04394 9.18755 7.83769 9.5813C7.61269 9.97505 7.40644 10.3688 7.20019 10.7438ZM12.0002 5.66255C12.4502 6.15005 12.8814 6.67505 13.2939 7.2188C12.8627 7.20005 12.4314 7.1813 12.0002 7.1813C11.5689 7.1813 11.1377 7.20005 10.7064 7.2188C11.1189 6.67505 11.5502 6.15005 12.0002 5.66255ZM16.1627 9.60005L15.4877 8.47505C16.2002 8.5688 16.8752 8.6813 17.5127 8.8313C17.3064 9.45005 17.0814 10.1063 16.8002 10.7626C16.5939 10.3688 16.3877 9.97505 16.1627 9.60005ZM5.94395 6.56255C5.6252 4.5938 5.88769 3.2063 6.65644 2.7563C6.84394 2.6438 7.06894 2.58755 7.31269 2.58755C8.43769 2.58755 9.84394 3.5063 11.2502 4.8938C10.5939 5.6063 9.93769 6.4313 9.30019 7.3313C8.21269 7.42505 7.18144 7.5938 6.20644 7.80005C6.09394 7.3688 6.01895 6.9563 5.94395 6.56255ZM1.3127 12C1.3127 11.1188 2.38145 10.1813 4.25645 9.48755C4.63145 9.33755 5.04395 9.2063 5.45645 9.0938C5.75645 10.0313 6.13144 11.025 6.58144 12.0188C6.13144 13.0125 5.7377 13.9875 5.45645 14.925C2.86895 14.175 1.3127 13.0501 1.3127 12ZM6.65644 21.2438C5.88769 20.7938 5.6252 19.4063 5.94395 17.4376C6.0002 17.0438 6.09394 16.6313 6.20644 16.2001C7.18144 16.4251 8.21269 16.5751 9.30019 16.6688C9.93769 17.5688 10.5939 18.3751 11.2502 19.1063C9.86269 20.4751 8.45644 21.4126 7.31269 21.4126C7.06894 21.4126 6.84394 21.3563 6.65644 21.2438ZM18.0564 17.4376C18.3752 19.4063 18.1127 20.7938 17.3439 21.2438C17.1564 21.3563 16.9314 21.4126 16.6877 21.4126C15.5627 21.4126 14.1564 20.4938 12.7502 19.1063C13.4064 18.3938 14.0627 17.5688 14.7002 16.6688C15.7877 16.5751 16.8189 16.4063 17.7939 16.2001C17.9064 16.6313 17.9814 17.0438 18.0564 17.4376ZM19.7439 14.5126C19.3689 14.6626 18.9564 14.7938 18.5439 14.9063C18.2439 13.9688 17.8689 12.9751 17.4189 11.9813C17.8689 10.9876 18.2627 10.0126 18.5439 9.07505C21.1314 9.82505 22.6877 10.95 22.6877 12C22.6877 12.8813 21.6002 13.8188 19.7439 14.5126Z" fill="#61DAFB"/>
</svg>
