<svg width="24" height="24" viewBox="0 0 24 24" fill="none" xmlns="http://www.w3.org/2000/svg">
<g clip-path="url(#clip0_452_1981)">
<path d="M18.2628 0.00703756C15.1418 -0.139962 12.5188 2.11604 12.0708 5.08904C12.0528 5.22704 12.0258 5.36104 12.0038 5.49404C11.3078 9.19704 8.06781 12.001 4.17681 12.001C2.78881 12.001 1.48581 11.645 0.351813 11.022C0.320886 11.0046 0.285903 10.9955 0.250378 10.9958C0.214853 10.9962 0.180038 11.0058 0.149432 11.0239C0.118827 11.0419 0.0935082 11.0677 0.0760214 11.0986C0.0585346 11.1295 0.0494956 11.1645 0.0498128 11.2V24H11.9998V15.001C11.9998 13.345 13.3378 12.001 14.9868 12.001H17.9748C21.3568 12.001 24.0778 9.18404 23.9448 5.75704C23.8248 2.67304 21.3348 0.154038 18.2628 0.00703756Z" fill="white"/>
</g>
<defs>
<clipPath id="clip0_452_1981">
<rect width="24" height="24" fill="white"/>
</clipPath>
</defs>
</svg>
