<svg width="24" height="24" viewBox="0 0 24 24" fill="none" xmlns="http://www.w3.org/2000/svg">
<path d="M11.3184 12.545H7.91044V10.636H11.3204V12.546L11.3184 12.545ZM14.7284 0V6H20.7284L14.7284 0ZM16.0914 10.636H12.6814V12.546H16.0914V10.636ZM16.0914 13.909H12.6814V15.819H16.0914V13.909ZM20.7274 6.5V22.364C20.7274 23.268 19.9954 24 19.0914 24H4.90944C4.69459 24 4.48186 23.9577 4.28337 23.8755C4.08488 23.7933 3.90453 23.6727 3.75261 23.5208C3.4458 23.214 3.27344 22.7979 3.27344 22.364V1.636C3.27344 0.732 4.00544 0 4.90944 0H14.2274V6.5H20.7274ZM17.4544 9.273H6.54544V17.182H17.4554V9.272L17.4544 9.273ZM11.3184 13.909H7.91044V15.819H11.3204V13.909H11.3184Z" fill="#34A853"/>
</svg>
