<svg width="25" height="24" viewBox="0 0 25 24" fill="none" xmlns="http://www.w3.org/2000/svg">
<g clip-path="url(#clip0_452_1932)">
<path d="M12.9482 4.80005C9.74824 4.80005 7.74824 6.40005 6.94824 9.60005C8.14824 8.00005 9.54824 7.40005 11.1482 7.80005C12.0612 8.02805 12.7132 8.69005 13.4362 9.42405C14.6132 10.618 15.9742 12 18.9482 12C22.1482 12 24.1482 10.4 24.9482 7.20005C23.7482 8.80005 22.3482 9.40005 20.7482 9.00005C19.8352 8.77205 19.1832 8.11005 18.4602 7.37605C17.2842 6.18205 15.9232 4.80005 12.9482 4.80005ZM6.94824 12C3.74824 12 1.74824 13.6 0.948242 16.8C2.14824 15.2 3.54824 14.6 5.14824 15C6.06124 15.228 6.71324 15.89 7.43624 16.624C8.61324 17.818 9.97424 19.2 12.9482 19.2C16.1482 19.2 18.1482 17.6 18.9482 14.4C17.7482 16 16.3482 16.6 14.7482 16.2C13.8352 15.972 13.1832 15.31 12.4602 14.576C11.2842 13.382 9.92324 12 6.94824 12Z" fill="#06B6D4"/>
</g>
<defs>
<clipPath id="clip0_452_1932">
<rect width="24" height="24" fill="white" transform="translate(0.947266)"/>
</clipPath>
</defs>
</svg>
