<svg width="48" height="33" viewBox="0 0 48 33" fill="none" xmlns="http://www.w3.org/2000/svg">
<path d="M38.5494 0.0266979V0H28.1378H38.5494V0.0266979Z" fill="#0473FF"/>
<path d="M19.8621 0L15.7242 10.9989L15.6975 11.0256H15.7242L15.9111 11.3726L23.9734 25.2013V25.2547L24.0001 25.228L24.0268 25.2547V25.2013L32.2759 11.1324L32.2492 11.079L32.2225 11.0523L28.1113 0.0533959L23.9734 7.18131L19.8621 0Z" fill="#0473FF"/>
<path d="M38.5496 0.026698V0H28.138L33.3438 9.15684L33.5307 9.4505L37.4017 16.2848L28.1113 32.5962H38.6831L48.0001 16.3115L38.5496 0.026698Z" fill="#0515FF"/>
<path d="M14.6563 9.13014L19.8621 0H9.45051L0 16.3115L9.31702 32.6229H19.8888L10.5718 16.3115L14.6563 9.13014Z" fill="#0515FF"/>
</svg>
